# Blender v2.80 (sub 75) OBJ File: ''
# www.blender.org
o Carroceria_Cubo.002
v -2.046411 -0.989261 4.936796
v -1.542590 0.799275 4.529683
v -2.046411 -0.989261 -4.936796
v -1.542590 0.907838 -4.936796
v 2.046411 -0.989261 4.936796
v 1.542590 0.799275 4.529683
v 2.046411 -0.989261 -4.936796
v 1.542590 0.907838 -4.936796
v -2.046411 0.176416 4.936796
v -2.046411 0.176416 -4.936796
v 2.046411 0.176416 -4.936796
v 2.046411 0.176416 4.936796
v -2.046411 -0.989261 1.478326
v -1.542590 1.342092 1.478326
v 2.046411 -0.989261 1.478326
v 1.542590 1.342092 1.478326
v 2.046411 0.176416 1.478326
v -2.046411 0.176416 1.478326
v -1.542590 1.342092 -2.503942
v 2.046411 -0.989261 -2.503942
v -2.046411 0.176416 -2.503942
v -2.046411 -0.989261 -2.503942
v 1.542590 1.342092 -2.503942
v 2.046411 0.176416 -2.503942
vn -0.8235 0.5673 0.0000
vn 0.0000 0.0000 -1.0000
vn 0.7775 0.6289 0.0000
vn 0.0000 0.5471 0.8371
vn 0.0000 -1.0000 0.0000
vn 0.0000 0.9845 0.1751
vn 0.0000 0.0000 1.0000
vn 1.0000 0.0000 0.0000
vn -1.0000 0.0000 0.0000
vn 0.0000 1.0000 0.0000
vn 0.9179 0.3967 0.0000
vn -0.7775 0.6289 0.0000
vn 0.8235 0.5673 0.0000
vn 0.0000 0.9844 -0.1757
vn -0.9179 0.3967 0.0000
vn -0.9156 0.3958 -0.0706
vn 0.9157 0.3958 0.0704
vn -0.9157 0.3958 0.0704
vn 0.9156 0.3958 -0.0706
s off
f 21//1 4//1 10//1
f 4//2 11//2 10//2
f 17//3 6//3 12//3
f 6//4 9//4 12//4
f 15//5 1//5 13//5
f 14//6 6//6 16//6
f 12//7 1//7 5//7
f 17//8 5//8 15//8
f 10//2 7//2 3//2
f 21//9 3//9 22//9
f 9//9 13//9 1//9
f 24//8 15//8 20//8
f 19//10 16//10 23//10
f 20//5 13//5 22//5
f 23//11 17//11 24//11
f 2//12 18//12 9//12
f 8//13 24//13 11//13
f 7//5 22//5 3//5
f 8//14 19//14 23//14
f 11//8 20//8 7//8
f 18//9 22//9 13//9
f 14//15 21//15 18//15
f 21//16 19//16 4//16
f 4//2 8//2 11//2
f 17//17 16//17 6//17
f 6//4 2//4 9//4
f 15//5 5//5 1//5
f 14//6 2//6 6//6
f 12//7 9//7 1//7
f 17//8 12//8 5//8
f 10//2 11//2 7//2
f 21//9 10//9 3//9
f 9//9 18//9 13//9
f 24//8 17//8 15//8
f 19//10 14//10 16//10
f 20//5 15//5 13//5
f 23//11 16//11 17//11
f 2//18 14//18 18//18
f 8//19 23//19 24//19
f 7//5 20//5 22//5
f 8//14 4//14 19//14
f 11//8 24//8 20//8
f 18//9 21//9 22//9
f 14//15 19//15 21//15
