# Blender v2.80 (sub 75) OBJ File: ''
# www.blender.org
mtllib serit2.mtl
o Circle.001_Circle.002
v 0.080566 0.117774 -102.389458
v -19.827087 0.117774 -100.428749
v -38.969711 0.117774 -94.621895
v -56.611656 0.117774 -85.192070
v -72.074936 0.117774 -72.501686
v -84.765343 0.117774 -57.038383
v -94.195145 0.117774 -39.396454
v -100.001999 0.117774 -20.253830
v -101.962738 0.117774 -0.346176
v -100.002007 0.117774 19.561485
v -94.195152 0.117774 38.704102
v -84.765343 0.117774 56.346046
v -72.074936 0.117774 71.809341
v -56.611649 0.117774 84.499741
v -38.969696 0.117774 93.929558
v -19.827065 0.117774 99.736404
v 0.080605 0.117774 101.697136
v 19.988266 0.117774 99.736389
v 39.130905 0.117774 93.929527
v 56.772842 0.117774 84.499702
v 72.236130 0.117774 71.809296
v 84.926514 0.117774 56.345993
v 94.356308 0.117774 38.704037
v 100.163162 0.117774 19.561405
v 102.123871 0.117774 -0.346268
v 100.163116 0.117774 -20.253937
v 94.356232 0.117774 -39.396553
v 84.926392 0.117774 -57.038506
v 72.235992 0.117774 -72.501778
v 56.772675 0.117774 -85.192162
v 39.130707 0.117774 -94.621941
v 19.988083 0.117774 -100.428780
v 0.080566 0.117774 -99.979469
v -19.356918 0.117774 -98.065056
v -38.047447 0.117774 -92.395363
v -55.272736 0.117774 -83.188240
v -70.370819 0.117774 -70.797569
v -82.761513 0.117774 -55.699455
v -91.968613 0.117774 -38.474190
v -97.638313 0.117774 -19.783669
v -99.552750 0.117774 -0.346176
v -97.638321 0.117774 19.091316
v -91.968613 0.117774 37.781837
v -82.761513 0.117774 55.007133
v -70.370819 0.117774 70.105225
v -55.272732 0.117774 82.495903
v -38.047440 0.117774 91.703018
v -19.356895 0.117774 97.372726
v 0.080605 0.117774 99.287148
v 19.518097 0.117774 97.372711
v 38.208633 0.117774 91.702988
v 55.433929 0.117774 82.495872
v 70.532013 0.117774 70.105179
v 82.922684 0.117774 55.007080
v 92.129761 0.117774 37.781776
v 97.799469 0.117774 19.091244
v 99.713882 0.117774 -0.346268
v 97.799423 0.117774 -19.783775
v 92.129700 0.117774 -38.474289
v 82.922562 0.117774 -55.699577
v 70.531860 0.117774 -70.797661
v 55.433762 0.117774 -83.188316
v 38.208450 0.117774 -92.395409
v 19.517914 0.117774 -98.065086
vt 0.000000 0.000000
vt 0.000000 0.000000
vt 0.000000 0.000000
vt 0.000000 0.000000
vt 0.000000 0.000000
vt 0.000000 0.000000
vt 0.000000 0.000000
vt 0.000000 0.000000
vt 0.000000 0.000000
vt 0.000000 0.000000
vt 0.000000 0.000000
vt 0.000000 0.000000
vt 0.000000 0.000000
vt 0.000000 0.000000
vt 0.000000 0.000000
vt 0.000000 0.000000
vt 0.000000 0.000000
vt 0.000000 0.000000
vt 0.000000 0.000000
vt 0.000000 0.000000
vt 0.000000 0.000000
vt 0.000000 0.000000
vt 0.000000 0.000000
vt 0.000000 0.000000
vt 0.000000 0.000000
vt 0.000000 0.000000
vt 0.000000 0.000000
vt 0.000000 0.000000
vt 0.000000 0.000000
vt 0.000000 0.000000
vt 0.000000 0.000000
vt 0.000000 0.000000
vt 0.000000 0.000000
vt 0.000000 0.000000
vt 0.000000 0.000000
vt 0.000000 0.000000
vt 0.000000 0.000000
vt 0.000000 0.000000
vt 0.000000 0.000000
vt 0.000000 0.000000
vt 0.000000 0.000000
vt 0.000000 0.000000
vt 0.000000 0.000000
vt 0.000000 0.000000
vt 0.000000 0.000000
vt 0.000000 0.000000
vt 0.000000 0.000000
vt 0.000000 0.000000
vt 0.000000 0.000000
vt 0.000000 0.000000
vt 0.000000 0.000000
vt 0.000000 0.000000
vt 0.000000 0.000000
vt 0.000000 0.000000
vt 0.000000 0.000000
vt 0.000000 0.000000
vt 0.000000 0.000000
vt 0.000000 0.000000
vt 0.000000 0.000000
vt 0.000000 0.000000
vt 0.000000 0.000000
vt 0.000000 0.000000
vt 0.000000 0.000000
vt 0.000000 0.000000
vn 0.0000 -1.0000 0.0000
usemtl None
s off
f 23/1/1 54/2/1 55/3/1
f 9/4/1 42/5/1 10/6/1
f 23/1/1 56/7/1 24/8/1
f 10/6/1 43/9/1 11/10/1
f 25/11/1 56/7/1 57/12/1
f 11/10/1 44/13/1 12/14/1
f 26/15/1 57/12/1 58/16/1
f 13/17/1 44/13/1 45/18/1
f 27/19/1 58/16/1 59/20/1
f 13/17/1 46/21/1 14/22/1
f 28/23/1 59/20/1 60/24/1
f 14/22/1 47/25/1 15/26/1
f 1/27/1 34/28/1 2/29/1
f 28/23/1 61/30/1 29/31/1
f 15/26/1 48/32/1 16/33/1
f 2/29/1 35/34/1 3/35/1
f 30/36/1 61/30/1 62/37/1
f 17/38/1 48/32/1 49/39/1
f 4/40/1 35/34/1 36/41/1
f 31/42/1 62/37/1 63/43/1
f 17/38/1 50/44/1 18/45/1
f 5/46/1 36/41/1 37/47/1
f 31/42/1 64/48/1 32/49/1
f 18/45/1 51/50/1 19/51/1
f 6/52/1 37/47/1 38/53/1
f 1/27/1 64/48/1 33/54/1
f 19/51/1 52/55/1 20/56/1
f 7/57/1 38/53/1 39/58/1
f 20/56/1 53/59/1 21/60/1
f 7/57/1 40/61/1 8/62/1
f 21/60/1 54/2/1 22/63/1
f 8/62/1 41/64/1 9/4/1
f 23/1/1 22/63/1 54/2/1
f 9/4/1 41/64/1 42/5/1
f 23/1/1 55/3/1 56/7/1
f 10/6/1 42/5/1 43/9/1
f 25/11/1 24/8/1 56/7/1
f 11/10/1 43/9/1 44/13/1
f 26/15/1 25/11/1 57/12/1
f 13/17/1 12/14/1 44/13/1
f 27/19/1 26/15/1 58/16/1
f 13/17/1 45/18/1 46/21/1
f 28/23/1 27/19/1 59/20/1
f 14/22/1 46/21/1 47/25/1
f 1/27/1 33/54/1 34/28/1
f 28/23/1 60/24/1 61/30/1
f 15/26/1 47/25/1 48/32/1
f 2/29/1 34/28/1 35/34/1
f 30/36/1 29/31/1 61/30/1
f 17/38/1 16/33/1 48/32/1
f 4/40/1 3/35/1 35/34/1
f 31/42/1 30/36/1 62/37/1
f 17/38/1 49/39/1 50/44/1
f 5/46/1 4/40/1 36/41/1
f 31/42/1 63/43/1 64/48/1
f 18/45/1 50/44/1 51/50/1
f 6/52/1 5/46/1 37/47/1
f 1/27/1 32/49/1 64/48/1
f 19/51/1 51/50/1 52/55/1
f 7/57/1 6/52/1 38/53/1
f 20/56/1 52/55/1 53/59/1
f 7/57/1 39/58/1 40/61/1
f 21/60/1 53/59/1 54/2/1
f 8/62/1 40/61/1 41/64/1
