# Blender v2.80 (sub 75) OBJ File: ''
# www.blender.org
mtllib Track2.mtl
o Circle_Circle.001
v -0.000104 0.000119 -63.192585
v -12.328369 0.000119 -61.978355
v -24.182867 0.000119 -58.382332
v -35.108032 0.000119 -52.542709
v -44.684017 0.000119 -44.683899
v -52.542831 0.000119 -35.107910
v -58.382450 0.000119 -24.182747
v -61.978474 0.000119 -12.328254
v -63.192703 0.000119 0.000009
v -61.978477 0.000119 12.328271
v -58.382454 0.000119 24.182764
v -52.542831 0.000119 35.107941
v -44.684017 0.000119 44.683929
v -35.108028 0.000119 52.542744
v -24.182856 0.000119 58.382370
v -12.328354 0.000119 61.978390
v -0.000084 0.000119 63.192616
v 12.328186 0.000119 61.978382
v 24.182684 0.000119 58.382351
v 35.107857 0.000119 52.542721
v 44.683842 0.000119 44.683903
v 52.542648 0.000119 35.107906
v 58.382267 0.000119 24.182728
v 61.978279 0.000119 12.328223
v 63.192497 0.000119 -0.000048
v 61.978256 0.000119 -12.328317
v 58.382217 0.000119 -24.182814
v 52.542580 0.000119 -35.107979
v 44.683758 0.000119 -44.683956
v 35.107754 0.000119 -52.542759
v 24.182571 0.000119 -58.382370
v 12.328066 0.000119 -61.978374
v -0.000104 0.000119 -63.192585
v -12.328369 0.000119 -61.978355
v -24.182867 0.000119 -58.382332
v -35.108032 0.000119 -52.542709
v -44.684017 0.000119 -44.683899
v -52.542831 0.000119 -35.107910
v -58.382450 0.000119 -24.182747
v -61.978474 0.000119 -12.328254
v -63.192703 0.000119 0.000009
v -61.978477 0.000119 12.328271
v -58.382454 0.000119 24.182764
v -52.542831 0.000119 35.107941
v -44.684017 0.000119 44.683929
v -35.108028 0.000119 52.542744
v -24.182856 0.000119 58.382370
v -12.328354 0.000119 61.978390
v -0.000084 0.000119 63.192616
v 12.328186 0.000119 61.978382
v 24.182684 0.000119 58.382351
v 35.107857 0.000119 52.542721
v 44.683842 0.000119 44.683903
v 52.542648 0.000119 35.107906
v 58.382267 0.000119 24.182728
v 61.978279 0.000119 12.328223
v 63.192497 0.000119 -0.000048
v 61.978256 0.000119 -12.328317
v 58.382217 0.000119 -24.182814
v 52.542580 0.000119 -35.107979
v 44.683758 0.000119 -44.683956
v 35.107754 0.000119 -52.542759
v 24.182571 0.000119 -58.382370
v 12.328066 0.000119 -61.978374
v -0.000104 0.000119 -63.192585
v -12.328369 0.000119 -61.978355
v -24.182867 0.000119 -58.382332
v -35.108032 0.000119 -52.542709
v -45.144161 0.075931 -44.976223
v -52.542831 0.000119 -35.107910
v -58.382450 0.000119 -24.182747
v -61.978474 0.000119 -12.328254
v -63.192703 0.000119 0.000009
v -61.978477 0.000119 12.328271
v -52.542831 0.000119 35.107941
v -44.684017 0.000119 44.683929
v -35.108028 0.000119 52.542744
v -24.182856 0.000119 58.382370
v -12.328354 0.000119 61.978390
v -0.000084 0.000119 63.192616
v 12.328186 0.000119 61.978382
v 24.182684 0.000119 58.382351
v 35.107857 0.000119 52.542721
v 44.683842 0.000119 44.683903
v 52.542648 0.000119 35.107906
v 58.382267 0.000119 24.182728
v 61.978279 0.000119 12.328223
v 63.192497 0.000119 -0.000048
v 58.382217 0.000119 -24.182814
v 52.542580 0.000119 -35.107979
v 44.683758 0.000119 -44.683956
v 35.107754 0.000119 -52.542759
v 12.328066 0.000119 -61.978374
v -1.076151 1.188168 -65.428871
v -13.897664 1.188168 -64.166061
v -26.226448 1.188168 -60.426174
v -37.588718 1.188168 -54.352921
v -47.547836 1.188168 -46.179684
v -55.721073 1.188168 -36.220566
v -61.794327 1.188168 -24.858288
v -65.534218 1.188168 -12.529501
v -66.797043 1.188168 0.292000
v -65.534218 1.188168 13.113505
v -61.794327 1.188168 25.442291
v -55.721073 1.188168 36.804565
v -47.547836 1.188168 46.763672
v -37.588718 1.188168 54.936905
v -26.226440 1.188168 61.010189
v -13.897641 1.188168 64.750076
v -1.076131 1.188168 66.012901
v 11.745387 1.188168 64.750076
v 24.074177 1.188168 61.010174
v 35.436451 1.188168 54.936890
v 45.395561 1.188168 46.763657
v 53.568798 1.188168 36.804535
v 59.642052 1.188168 25.442245
v 63.381939 1.188168 13.113456
v 64.644730 1.188168 0.291941
v 59.642006 1.188168 -24.858356
v 53.568737 1.188168 -36.220642
v 45.395473 1.188168 -46.179745
v 35.436344 1.188168 -54.352966
v 24.074057 1.188168 -60.426220
v 11.745263 1.188168 -64.166092
v -44.926830 1.256253 -43.459415
v -61.348240 1.188168 -11.696859
v -52.172367 1.188168 34.433395
v -35.217552 1.188168 51.388199
v -13.065000 1.188168 60.564091
v 10.912742 1.188168 60.564091
v 33.065281 1.188168 51.388187
v 55.698940 1.188168 23.808958
v 60.376743 1.188168 0.291943
v 50.020035 1.188168 -33.849468
v 10.912625 1.188168 -59.980114
v 0.099216 0.459680 -100.127388
v -19.409819 0.459680 -98.205917
v -38.169128 0.459680 -92.515343
v -55.457809 0.459680 -83.274353
v -70.611465 0.459680 -70.838066
v -83.047760 0.459680 -55.684418
v -92.288750 0.459680 -38.395737
v -97.979332 0.459680 -19.636429
v -99.900795 0.459680 -0.127401
v -97.979332 0.459680 19.381630
v -92.288750 0.459680 38.140938
v -83.047760 0.459680 55.429630
v -70.611465 0.459680 70.583290
v -55.457809 0.459680 83.019585
v -38.169113 0.459680 92.260582
v -19.409792 0.459680 97.951149
v 0.099250 0.459680 99.872620
v 19.608290 0.459680 97.951141
v 38.367607 0.459680 92.260551
v 55.656292 0.459680 83.019554
v 70.809944 0.459680 70.583260
v 83.246216 0.459680 55.429573
v 92.487198 0.459680 38.140877
v 98.177757 0.459680 19.381554
v 100.099213 0.459680 -0.127489
v 98.177719 0.459680 -19.636526
v 92.487122 0.459680 -38.395840
v 83.246109 0.459680 -55.684521
v 70.809799 0.459680 -70.838158
v 55.656132 0.459680 -83.274429
v 38.367428 0.459680 -92.515404
v 19.608099 0.459680 -98.205948
v 0.099214 0.459680 -64.766922
v -12.511332 0.459680 -63.524895
v -24.637262 0.459680 -59.846531
v -35.812580 0.459680 -53.873199
v -45.607830 0.459680 -45.834442
v -53.646584 0.459680 -36.039200
v -59.227242 0.390602 -24.540327
v -63.298286 0.459680 -12.737951
v -64.540321 0.459680 -0.127409
v -63.298286 0.459680 12.483135
v -59.619919 0.459680 24.609062
v -53.646584 0.459680 35.784389
v -45.607830 0.459680 45.579643
v -35.812580 0.459680 53.618404
v -24.637251 0.459680 59.591740
v -12.511315 0.459680 63.270092
v 0.099235 0.459680 64.512131
v 12.709785 0.459680 63.270092
v 24.835716 0.459680 59.591721
v 36.011044 0.459680 53.618385
v 45.806293 0.459680 45.579620
v 53.845039 0.459680 35.784351
v 59.818367 0.459680 24.609024
v 63.496716 0.459680 12.483087
v 64.738731 0.459680 -0.127466
v 63.496693 0.459680 -12.738014
v 59.818317 0.459680 -24.863945
v 53.844971 0.459680 -36.039265
v 45.806202 0.459680 -45.834503
v 36.010937 0.459680 -53.873249
v 24.835600 0.459680 -59.846573
v 12.709662 0.459680 -63.524910
vt 0.000000 0.000000
vt 0.000000 0.000000
vt 0.000000 0.000000
vt 0.000000 0.000000
vt 0.000000 0.000000
vt 0.000000 0.000000
vt 0.000000 0.000000
vt 0.000000 0.000000
vt 0.000000 0.000000
vt 0.000000 0.000000
vt 0.000000 0.000000
vt 0.000000 0.000000
vt 0.000000 0.000000
vt 0.000000 0.000000
vt 0.000000 0.000000
vt 0.000000 0.000000
vt 0.000000 0.000000
vt 0.000000 0.000000
vt 0.000000 0.000000
vt 0.000000 0.000000
vt 0.000000 0.000000
vt 0.000000 0.000000
vt 0.000000 0.000000
vt 0.000000 0.000000
vt 0.000000 0.000000
vt 0.000000 0.000000
vt 0.000000 0.000000
vt 0.000000 0.000000
vt 0.000000 0.000000
vt 0.000000 0.000000
vt 0.000000 0.000000
vt 0.000000 0.000000
vt 0.000000 0.000000
vt 0.000000 0.000000
vt 0.000000 0.000000
vt 0.000000 0.000000
vt 0.000000 0.000000
vt 0.000000 0.000000
vt 0.000000 0.000000
vt 0.000000 0.000000
vt 0.000000 0.000000
vt 0.000000 0.000000
vt 0.000000 0.000000
vt 0.000000 0.000000
vt 0.000000 0.000000
vt 0.000000 0.000000
vt 0.000000 0.000000
vt 0.000000 0.000000
vt 0.000000 0.000000
vt 0.000000 0.000000
vt 0.000000 0.000000
vt 0.000000 0.000000
vt 0.000000 0.000000
vt 0.000000 0.000000
vt 0.000000 0.000000
vt 0.000000 0.000000
vt 0.000000 0.000000
vt 0.000000 0.000000
vt 0.000000 0.000000
vt 0.000000 0.000000
vt 0.000000 0.000000
vt 0.000000 0.000000
vt 0.000000 0.000000
vt 0.000000 0.000000
vt 0.000000 0.000000
vt 0.000000 0.000000
vt 0.000000 0.000000
vt 0.000000 0.000000
vt 0.000000 0.000000
vt 0.000000 0.000000
vt 0.000000 0.000000
vt 0.000000 0.000000
vt 0.000000 0.000000
vt 0.000000 0.000000
vt 0.000000 0.000000
vt 0.000000 0.000000
vt 0.000000 0.000000
vt 0.000000 0.000000
vt 0.000000 0.000000
vt 0.000000 0.000000
vt 0.000000 0.000000
vt 0.000000 0.000000
vt 0.000000 0.000000
vt 0.000000 0.000000
vt 0.000000 0.000000
vt 0.000000 0.000000
vt 0.000000 0.000000
vt 0.000000 0.000000
vt 0.000000 0.000000
vt 0.000000 0.000000
vt 0.000000 0.000000
vt 0.000000 0.000000
vt 0.000000 0.000000
vt 0.000000 0.000000
vt 0.000000 0.000000
vt 0.000000 0.000000
vt 0.000000 0.000000
vt 0.000000 0.000000
vt 0.000000 0.000000
vt 0.000000 0.000000
vt 0.000000 0.000000
vt 0.000000 0.000000
vt 0.000000 0.000000
vt 0.000000 0.000000
vt 0.000000 0.000000
vt 0.000000 0.000000
vt 0.000000 0.000000
vt 0.000000 0.000000
vt 0.000000 0.000000
vt 0.000000 0.000000
vt 0.000000 0.000000
vt 0.000000 0.000000
vt 0.000000 0.000000
vt 0.000000 0.000000
vt 0.000000 0.000000
vt 0.000000 0.000000
vt 0.000000 0.000000
vt 0.000000 0.000000
vt 0.000000 0.000000
vt 0.000000 0.000000
vt 0.000000 0.000000
vt 0.000000 0.000000
vt 0.000000 0.000000
vt 0.000000 0.000000
vt 0.000000 0.000000
vt 0.000000 0.000000
vt 0.000000 0.000000
vt 0.000000 0.000000
vt 0.000000 0.000000
vt 0.000000 0.000000
vt 0.000000 0.000000
vt 0.000000 0.000000
vt 0.000000 0.000000
vt 0.000000 0.000000
vt 0.000000 0.000000
vt 0.000000 0.000000
vt 0.000000 0.000000
vt 0.000000 0.000000
vt 0.000000 0.000000
vt 0.000000 0.000000
vt 0.000000 0.000000
vt 0.000000 0.000000
vt 0.000000 0.000000
vt 0.000000 0.000000
vt 0.000000 0.000000
vt 0.000000 0.000000
vt 0.000000 0.000000
vt 0.000000 0.000000
vt 0.000000 0.000000
vt 0.000000 0.000000
vt 0.000000 0.000000
vt 0.000000 0.000000
vt 0.000000 0.000000
vt 0.000000 0.000000
vt 0.000000 0.000000
vt 0.000000 0.000000
vt 0.000000 0.000000
vn 0.0000 0.0000 1.0000
vn 0.0919 0.9895 0.1120
vn -0.0000 -1.0000 -0.0000
vn 0.0004 -1.0000 -0.0058
vn 0.1072 0.9903 0.0880
vn -0.0040 -1.0000 0.0045
usemtl None
s off
f 25/1/1 56/2/1 57/3/1
f 12/4/1 43/5/1 44/6/1
f 26/7/1 57/3/1 58/8/1
f 13/9/1 44/6/1 45/10/1
f 27/11/1 58/8/1 59/12/1
f 14/13/1 45/10/1 46/14/1
f 28/15/1 59/12/1 60/16/1
f 15/17/1 46/14/1 47/18/1
f 2/19/1 33/20/1 34/21/1
f 29/22/1 60/16/1 61/23/1
f 16/24/1 47/18/1 48/25/1
f 3/26/1 34/21/1 35/27/1
f 30/28/1 61/23/1 62/29/1
f 17/30/1 48/25/1 49/31/1
f 4/32/1 35/27/1 36/33/1
f 31/34/1 62/29/1 63/35/1
f 18/36/1 49/31/1 50/37/1
f 5/38/1 36/33/1 37/39/1
f 32/40/1 63/35/1 64/41/1
f 19/42/1 50/37/1 51/43/1
f 6/44/1 37/39/1 38/45/1
f 1/46/1 64/41/1 33/20/1
f 20/47/1 51/43/1 52/48/1
f 7/49/1 38/45/1 39/50/1
f 21/51/1 52/48/1 53/52/1
f 8/53/1 39/50/1 40/54/1
f 22/55/1 53/52/1 54/56/1
f 9/57/1 40/54/1 41/58/1
f 23/59/1 54/56/1 55/60/1
f 10/61/1 41/58/1 42/62/1
f 24/63/1 55/60/1 56/2/1
f 11/64/1 42/62/1 43/5/1
f 33/20/1 93/65/1 65/66/1
f 52/48/1 82/67/1 83/68/1
f 39/50/1 70/69/1 71/70/1
f 53/52/1 83/68/1 84/71/1
f 40/54/1 71/70/1 72/72/1
f 54/56/1 84/71/1 85/73/1
f 41/58/1 72/72/1 73/74/1
f 55/60/1 85/73/1 86/75/1
f 42/62/1 73/74/1 74/76/1
f 56/2/1 86/75/1 87/77/1
f 57/3/1 87/77/1 88/78/1
f 45/10/1 75/79/1 76/80/1
f 46/14/1 76/80/1 77/81/1
f 60/16/1 89/82/1 90/83/1
f 47/18/1 77/81/1 78/84/1
f 34/21/1 65/66/1 66/85/1
f 61/23/1 90/83/1 91/86/1
f 48/25/1 78/84/1 79/87/1
f 35/27/1 66/85/1 67/88/1
f 62/29/1 91/86/1 92/89/1
f 49/31/1 79/87/1 80/90/1
f 36/33/1 67/88/1 68/91/1
f 50/37/1 80/90/1 81/92/1
f 37/39/2 68/91/2 69/93/2
f 51/43/1 81/92/1 82/67/1
f 38/45/1 69/93/1 70/69/1
f 160/94/3 193/95/3 161/96/3
f 147/97/3 180/98/3 148/99/3
f 162/100/3 193/95/3 194/101/3
f 148/99/3 181/102/3 149/103/3
f 163/104/3 194/101/3 195/105/3
f 149/103/3 182/106/3 150/107/3
f 137/108/3 168/109/3 169/110/3
f 164/111/3 195/105/3 196/112/3
f 151/113/3 182/106/3 183/114/3
f 138/115/3 169/110/3 170/116/3
f 165/117/3 196/112/3 197/118/3
f 151/113/3 184/119/3 152/120/3
f 138/115/3 171/121/3 139/122/3
f 165/117/3 198/123/3 166/124/3
f 152/120/3 185/125/3 153/126/3
f 140/127/3 171/121/3 172/128/3
f 167/129/3 198/123/3 199/130/3
f 154/131/3 185/125/3 186/132/3
f 140/127/3 173/133/3 141/134/3
f 136/135/3 199/130/3 168/109/3
f 154/131/3 187/136/3 155/137/3
f 142/138/4 173/133/4 174/139/4
f 156/140/3 187/136/3 188/141/3
f 142/138/3 175/142/3 143/143/3
f 157/144/3 188/141/3 189/145/3
f 144/146/3 175/142/3 176/147/3
f 157/144/3 190/148/3 158/149/3
f 144/146/3 177/150/3 145/151/3
f 159/152/3 190/148/3 191/153/3
f 146/154/3 177/150/3 178/155/3
f 160/94/3 191/153/3 192/156/3
f 146/154/3 179/157/3 147/97/3
f 25/1/1 24/63/1 56/2/1
f 12/4/1 11/64/1 43/5/1
f 26/7/1 25/1/1 57/3/1
f 13/9/1 12/4/1 44/6/1
f 27/11/1 26/7/1 58/8/1
f 14/13/1 13/9/1 45/10/1
f 28/15/1 27/11/1 59/12/1
f 15/17/1 14/13/1 46/14/1
f 2/19/1 1/46/1 33/20/1
f 29/22/1 28/15/1 60/16/1
f 16/24/1 15/17/1 47/18/1
f 3/26/1 2/19/1 34/21/1
f 30/28/1 29/22/1 61/23/1
f 17/30/1 16/24/1 48/25/1
f 4/32/1 3/26/1 35/27/1
f 31/34/1 30/28/1 62/29/1
f 18/36/1 17/30/1 49/31/1
f 5/38/1 4/32/1 36/33/1
f 32/40/1 31/34/1 63/35/1
f 19/42/1 18/36/1 50/37/1
f 6/44/1 5/38/1 37/39/1
f 1/46/1 32/40/1 64/41/1
f 20/47/1 19/42/1 51/43/1
f 7/49/1 6/44/1 38/45/1
f 21/51/1 20/47/1 52/48/1
f 8/53/1 7/49/1 39/50/1
f 22/55/1 21/51/1 53/52/1
f 9/57/1 8/53/1 40/54/1
f 23/59/1 22/55/1 54/56/1
f 10/61/1 9/57/1 41/58/1
f 24/63/1 23/59/1 55/60/1
f 11/64/1 10/61/1 42/62/1
f 33/20/1 64/41/1 93/65/1
f 52/48/1 51/43/1 82/67/1
f 39/50/1 38/45/1 70/69/1
f 53/52/1 52/48/1 83/68/1
f 40/54/1 39/50/1 71/70/1
f 54/56/1 53/52/1 84/71/1
f 41/58/1 40/54/1 72/72/1
f 55/60/1 54/56/1 85/73/1
f 42/62/1 41/58/1 73/74/1
f 56/2/1 55/60/1 86/75/1
f 57/3/1 56/2/1 87/77/1
f 45/10/1 44/6/1 75/79/1
f 46/14/1 45/10/1 76/80/1
f 60/16/1 59/12/1 89/82/1
f 47/18/1 46/14/1 77/81/1
f 34/21/1 33/20/1 65/66/1
f 61/23/1 60/16/1 90/83/1
f 48/25/1 47/18/1 78/84/1
f 35/27/1 34/21/1 66/85/1
f 62/29/1 61/23/1 91/86/1
f 49/31/1 48/25/1 79/87/1
f 36/33/1 35/27/1 67/88/1
f 50/37/1 49/31/1 80/90/1
f 37/39/1 36/33/1 68/91/1
f 51/43/1 50/37/1 81/92/1
f 38/45/5 37/39/5 69/93/5
f 160/94/3 192/156/3 193/95/3
f 147/97/3 179/157/3 180/98/3
f 162/100/3 161/96/3 193/95/3
f 148/99/3 180/98/3 181/102/3
f 163/104/3 162/100/3 194/101/3
f 149/103/3 181/102/3 182/106/3
f 137/108/3 136/135/3 168/109/3
f 164/111/3 163/104/3 195/105/3
f 151/113/3 150/107/3 182/106/3
f 138/115/3 137/108/3 169/110/3
f 165/117/3 164/111/3 196/112/3
f 151/113/3 183/114/3 184/119/3
f 138/115/3 170/116/3 171/121/3
f 165/117/3 197/118/3 198/123/3
f 152/120/3 184/119/3 185/125/3
f 140/127/3 139/122/3 171/121/3
f 167/129/3 166/124/3 198/123/3
f 154/131/3 153/126/3 185/125/3
f 140/127/3 172/128/3 173/133/3
f 136/135/3 167/129/3 199/130/3
f 154/131/3 186/132/3 187/136/3
f 142/138/3 141/134/3 173/133/3
f 156/140/3 155/137/3 187/136/3
f 142/138/6 174/139/6 175/142/6
f 157/144/3 156/140/3 188/141/3
f 144/146/3 143/143/3 175/142/3
f 157/144/3 189/145/3 190/148/3
f 144/146/3 176/147/3 177/150/3
f 159/152/3 158/149/3 190/148/3
f 146/154/3 145/151/3 177/150/3
f 160/94/3 159/152/3 191/153/3
f 146/154/3 178/155/3 179/157/3
l 95 94
l 96 95
l 97 96
l 98 97
l 99 98
l 100 99
l 101 100
l 102 101
l 103 102
l 104 103
l 105 104
l 106 105
l 107 106
l 108 107
l 109 108
l 110 109
l 111 110
l 112 111
l 113 112
l 114 113
l 115 114
l 116 115
l 117 116
l 118 117
l 120 119
l 121 120
l 122 121
l 123 122
l 124 123
l 94 124
l 101 126
l 132 116
l 133 118
l 127 105
l 128 107
l 134 120
l 129 109
l 130 111
l 125 98
l 135 124
l 131 113
