# Blender v2.80 (sub 75) OBJ File: ''
# www.blender.org
mtllib Track1.mtl
o Circle_Circle.001
v -0.000104 0.000119 -63.192585
v -12.328369 0.000119 -61.978355
v -24.182867 0.000119 -58.382332
v -35.108032 0.000119 -52.542709
v -44.684017 0.000119 -44.683899
v -52.542831 0.000119 -35.107910
v -58.382450 0.000119 -24.182747
v -61.978474 0.000119 -12.328254
v -63.192703 0.000119 0.000009
v -61.978477 0.000119 12.328271
v -58.382454 0.000119 24.182764
v -52.542831 0.000119 35.107941
v -44.684017 0.000119 44.683929
v -35.108028 0.000119 52.542744
v -24.182856 0.000119 58.382370
v -12.328354 0.000119 61.978390
v -0.000084 0.000119 63.192616
v 12.328186 0.000119 61.978382
v 24.182684 0.000119 58.382351
v 35.107857 0.000119 52.542721
v 44.683842 0.000119 44.683903
v 52.542648 0.000119 35.107906
v 58.382267 0.000119 24.182728
v 61.978279 0.000119 12.328223
v 63.192497 0.000119 -0.000048
v 61.978256 0.000119 -12.328317
v 58.382217 0.000119 -24.182814
v 52.542580 0.000119 -35.107979
v 44.683758 0.000119 -44.683956
v 35.107754 0.000119 -52.542759
v 24.182571 0.000119 -58.382370
v 12.328066 0.000119 -61.978374
v -0.000104 0.000119 -63.192585
v -12.328369 0.000119 -61.978355
v -24.182867 0.000119 -58.382332
v -35.108032 0.000119 -52.542709
v -44.684017 0.000119 -44.683899
v -52.542831 0.000119 -35.107910
v -58.382450 0.000119 -24.182747
v -61.978474 0.000119 -12.328254
v -63.192703 0.000119 0.000009
v -61.978477 0.000119 12.328271
v -58.382454 0.000119 24.182764
v -52.542831 0.000119 35.107941
v -44.684017 0.000119 44.683929
v -35.108028 0.000119 52.542744
v -24.182856 0.000119 58.382370
v -12.328354 0.000119 61.978390
v -0.000084 0.000119 63.192616
v 12.328186 0.000119 61.978382
v 24.182684 0.000119 58.382351
v 35.107857 0.000119 52.542721
v 44.683842 0.000119 44.683903
v 52.542648 0.000119 35.107906
v 58.382267 0.000119 24.182728
v 61.978279 0.000119 12.328223
v 63.192497 0.000119 -0.000048
v 61.978256 0.000119 -12.328317
v 58.382217 0.000119 -24.182814
v 52.542580 0.000119 -35.107979
v 44.683758 0.000119 -44.683956
v 35.107754 0.000119 -52.542759
v 24.182571 0.000119 -58.382370
v 12.328066 0.000119 -61.978374
v -0.000104 0.000119 -63.192585
v -12.328369 0.000119 -61.978355
v -24.182867 0.000119 -58.382332
v -35.108032 0.000119 -52.542709
v -44.684017 0.000119 -44.683899
v -52.542831 0.000119 -35.107910
v -58.382450 0.000119 -24.182747
v -61.978474 0.000119 -12.328254
v -63.192703 0.000119 0.000009
v -61.978477 0.000119 12.328271
v -58.382454 0.000119 24.182764
v -52.542831 0.000119 35.107941
v -44.684017 0.000119 44.683929
v -35.108028 0.000119 52.542744
v -24.182856 0.000119 58.382370
v -12.328354 0.000119 61.978390
v -0.000084 0.000119 63.192616
v 12.328186 0.000119 61.978382
v 24.182684 0.000119 58.382351
v 35.107857 0.000119 52.542721
v 44.683842 0.000119 44.683903
v 52.542648 0.000119 35.107906
v 58.382267 0.000119 24.182728
v 61.978279 0.000119 12.328223
v 63.192497 0.000119 -0.000048
v 61.978256 0.000119 -12.328317
v 58.382217 0.000119 -24.182814
v 52.542580 0.000119 -35.107979
v 44.683758 0.000119 -44.683956
v 35.107754 0.000119 -52.542759
v 24.182571 0.000119 -58.382370
v 12.328066 0.000119 -61.978374
v -0.000107 0.000119 -34.022388
v -6.637547 0.000119 -33.368652
v -13.019913 0.000119 -31.432585
v -18.901936 0.000119 -28.288578
v -24.057570 0.000119 -24.057459
v -28.288691 0.000119 -18.901821
v -31.432697 0.000119 -13.019802
v -33.368763 0.000119 -6.637437
v -34.022499 0.000119 0.000001
v -33.368767 0.000119 6.637439
v -31.432699 0.000119 13.019804
v -28.288691 0.000119 18.901831
v -24.057570 0.000119 24.057468
v -18.901934 0.000119 28.288591
v -13.019907 0.000119 31.432600
v -6.637539 0.000119 33.368664
v -0.000096 0.000119 34.022396
v 6.637345 0.000119 33.368660
v 13.019714 0.000119 31.432589
v 18.901739 0.000119 28.288580
v 24.057373 0.000119 24.057453
v 28.288490 0.000119 18.901814
v 31.432497 0.000119 13.019783
v 33.368557 0.000119 6.637413
v 34.022285 0.000119 -0.000029
v 33.368546 0.000119 -6.637471
v 31.432470 0.000119 -13.019836
v 28.288456 0.000119 -18.901859
v 24.057325 0.000119 -24.057487
v 18.901684 0.000119 -28.288605
v 13.019652 0.000119 -31.432604
v 6.637280 0.000119 -33.368664
vt 0.000000 0.000000
vt 0.000000 0.000000
vt 0.000000 0.000000
vt 0.000000 0.000000
vt 0.000000 0.000000
vt 0.000000 0.000000
vt 0.000000 0.000000
vt 0.000000 0.000000
vt 0.000000 0.000000
vt 0.000000 0.000000
vt 0.000000 0.000000
vt 0.000000 0.000000
vt 0.000000 0.000000
vt 0.000000 0.000000
vt 0.000000 0.000000
vt 0.000000 0.000000
vt 0.000000 0.000000
vt 0.000000 0.000000
vt 0.000000 0.000000
vt 0.000000 0.000000
vt 0.000000 0.000000
vt 0.000000 0.000000
vt 0.000000 0.000000
vt 0.000000 0.000000
vt 0.000000 0.000000
vt 0.000000 0.000000
vt 0.000000 0.000000
vt 0.000000 0.000000
vt 0.000000 0.000000
vt 0.000000 0.000000
vt 0.000000 0.000000
vt 0.000000 0.000000
vt 0.000000 0.000000
vt 0.000000 0.000000
vt 0.000000 0.000000
vt 0.000000 0.000000
vt 0.000000 0.000000
vt 0.000000 0.000000
vt 0.000000 0.000000
vt 0.000000 0.000000
vt 0.000000 0.000000
vt 0.000000 0.000000
vt 0.000000 0.000000
vt 0.000000 0.000000
vt 0.000000 0.000000
vt 0.000000 0.000000
vt 0.000000 0.000000
vt 0.000000 0.000000
vt 0.000000 0.000000
vt 0.000000 0.000000
vt 0.000000 0.000000
vt 0.000000 0.000000
vt 0.000000 0.000000
vt 0.000000 0.000000
vt 0.000000 0.000000
vt 0.000000 0.000000
vt 0.000000 0.000000
vt 0.000000 0.000000
vt 0.000000 0.000000
vt 0.000000 0.000000
vt 0.000000 0.000000
vt 0.000000 0.000000
vt 0.000000 0.000000
vt 0.000000 0.000000
vt 0.000000 0.000000
vt 0.000000 0.000000
vt 0.000000 0.000000
vt 0.000000 0.000000
vt 0.000000 0.000000
vt 0.000000 0.000000
vt 0.000000 0.000000
vt 0.000000 0.000000
vt 0.000000 0.000000
vt 0.000000 0.000000
vt 0.000000 0.000000
vt 0.000000 0.000000
vt 0.000000 0.000000
vt 0.000000 0.000000
vt 0.000000 0.000000
vt 0.000000 0.000000
vt 0.000000 0.000000
vt 0.000000 0.000000
vt 0.000000 0.000000
vt 0.000000 0.000000
vt 0.000000 0.000000
vt 0.000000 0.000000
vt 0.000000 0.000000
vt 0.000000 0.000000
vt 0.000000 0.000000
vt 0.000000 0.000000
vt 0.000000 0.000000
vt 0.000000 0.000000
vt 0.000000 0.000000
vt 0.000000 0.000000
vt 0.000000 0.000000
vt 0.000000 0.000000
vt 0.000000 0.000000
vt 0.000000 0.000000
vt 0.000000 0.000000
vt 0.000000 0.000000
vt 0.000000 0.000000
vt 0.000000 0.000000
vt 0.000000 0.000000
vt 0.000000 0.000000
vt 0.000000 0.000000
vt 0.000000 0.000000
vt 0.000000 0.000000
vt 0.000000 0.000000
vt 0.000000 0.000000
vt 0.000000 0.000000
vt 0.000000 0.000000
vt 0.000000 0.000000
vt 0.000000 0.000000
vt 0.000000 0.000000
vt 0.000000 0.000000
vt 0.000000 0.000000
vt 0.000000 0.000000
vt 0.000000 0.000000
vt 0.000000 0.000000
vt 0.000000 0.000000
vt 0.000000 0.000000
vt 0.000000 0.000000
vt 0.000000 0.000000
vt 0.000000 0.000000
vt 0.000000 0.000000
vt 0.000000 0.000000
vt 0.000000 0.000000
vt 0.000000 0.000000
vn 0.0000 0.0000 1.0000
vn 0.0000 -1.0000 0.0000
usemtl None
s off
f 25/1/1 56/2/1 57/3/1
f 12/4/1 43/5/1 44/6/1
f 26/7/1 57/3/1 58/8/1
f 13/9/1 44/6/1 45/10/1
f 27/11/1 58/8/1 59/12/1
f 14/13/1 45/10/1 46/14/1
f 28/15/1 59/12/1 60/16/1
f 15/17/1 46/14/1 47/18/1
f 2/19/1 33/20/1 34/21/1
f 29/22/1 60/16/1 61/23/1
f 16/24/1 47/18/1 48/25/1
f 3/26/1 34/21/1 35/27/1
f 30/28/1 61/23/1 62/29/1
f 17/30/1 48/25/1 49/31/1
f 4/32/1 35/27/1 36/33/1
f 31/34/1 62/29/1 63/35/1
f 18/36/1 49/31/1 50/37/1
f 5/38/1 36/33/1 37/39/1
f 32/40/1 63/35/1 64/41/1
f 19/42/1 50/37/1 51/43/1
f 6/44/1 37/39/1 38/45/1
f 1/46/1 64/41/1 33/20/1
f 20/47/1 51/43/1 52/48/1
f 7/49/1 38/45/1 39/50/1
f 21/51/1 52/48/1 53/52/1
f 8/53/1 39/50/1 40/54/1
f 22/55/1 53/52/1 54/56/1
f 9/57/1 40/54/1 41/58/1
f 23/59/1 54/56/1 55/60/1
f 10/61/1 41/58/1 42/62/1
f 24/63/1 55/60/1 56/2/1
f 11/64/1 42/62/1 43/5/1
f 33/20/1 96/65/1 65/66/1
f 52/48/1 83/67/1 84/68/1
f 39/50/1 70/69/1 71/70/1
f 53/52/1 84/68/1 85/71/1
f 40/54/1 71/70/1 72/72/1
f 54/56/1 85/71/1 86/73/1
f 41/58/1 72/72/1 73/74/1
f 55/60/1 86/73/1 87/75/1
f 42/62/1 73/74/1 74/76/1
f 56/2/1 87/75/1 88/77/1
f 43/5/1 74/76/1 75/78/1
f 57/3/1 88/77/1 89/79/1
f 44/6/1 75/78/1 76/80/1
f 58/8/1 89/79/1 90/81/1
f 45/10/1 76/80/1 77/82/1
f 59/12/1 90/81/1 91/83/1
f 46/14/1 77/82/1 78/84/1
f 60/16/1 91/83/1 92/85/1
f 47/18/1 78/84/1 79/86/1
f 34/21/1 65/66/1 66/87/1
f 61/23/1 92/85/1 93/88/1
f 48/25/1 79/86/1 80/89/1
f 35/27/1 66/87/1 67/90/1
f 62/29/1 93/88/1 94/91/1
f 49/31/1 80/89/1 81/92/1
f 36/33/1 67/90/1 68/93/1
f 63/35/1 94/91/1 95/94/1
f 50/37/1 81/92/1 82/95/1
f 37/39/1 68/93/1 69/96/1
f 64/41/1 95/94/1 96/65/1
f 51/43/1 82/95/1 83/67/1
f 38/45/1 69/96/1 70/69/1
f 86/73/2 119/97/2 87/75/2
f 73/74/2 106/98/2 74/76/2
f 88/77/2 119/97/2 120/99/2
f 75/78/2 106/98/2 107/100/2
f 88/77/2 121/101/2 89/79/2
f 75/78/2 108/102/2 76/80/2
f 90/81/2 121/101/2 122/103/2
f 76/80/2 109/104/2 77/82/2
f 90/81/2 123/105/2 91/83/2
f 77/82/2 110/106/2 78/84/2
f 92/85/2 123/105/2 124/107/2
f 78/84/2 111/108/2 79/86/2
f 66/87/2 97/109/2 98/110/2
f 93/88/2 124/107/2 125/111/2
f 79/86/2 112/112/2 80/89/2
f 66/87/2 99/113/2 67/90/2
f 93/88/2 126/114/2 94/91/2
f 80/89/2 113/115/2 81/92/2
f 67/90/2 100/116/2 68/93/2
f 95/94/2 126/114/2 127/117/2
f 81/92/2 114/118/2 82/95/2
f 68/93/2 101/119/2 69/96/2
f 95/94/2 128/120/2 96/65/2
f 82/95/2 115/121/2 83/67/2
f 69/96/2 102/122/2 70/69/2
f 96/65/2 97/109/2 65/66/2
f 83/67/2 116/123/2 84/68/2
f 70/69/2 103/124/2 71/70/2
f 84/68/2 117/125/2 85/71/2
f 71/70/2 104/126/2 72/72/2
f 85/71/2 118/127/2 86/73/2
f 72/72/2 105/128/2 73/74/2
f 25/1/1 24/63/1 56/2/1
f 12/4/1 11/64/1 43/5/1
f 26/7/1 25/1/1 57/3/1
f 13/9/1 12/4/1 44/6/1
f 27/11/1 26/7/1 58/8/1
f 14/13/1 13/9/1 45/10/1
f 28/15/1 27/11/1 59/12/1
f 15/17/1 14/13/1 46/14/1
f 2/19/1 1/46/1 33/20/1
f 29/22/1 28/15/1 60/16/1
f 16/24/1 15/17/1 47/18/1
f 3/26/1 2/19/1 34/21/1
f 30/28/1 29/22/1 61/23/1
f 17/30/1 16/24/1 48/25/1
f 4/32/1 3/26/1 35/27/1
f 31/34/1 30/28/1 62/29/1
f 18/36/1 17/30/1 49/31/1
f 5/38/1 4/32/1 36/33/1
f 32/40/1 31/34/1 63/35/1
f 19/42/1 18/36/1 50/37/1
f 6/44/1 5/38/1 37/39/1
f 1/46/1 32/40/1 64/41/1
f 20/47/1 19/42/1 51/43/1
f 7/49/1 6/44/1 38/45/1
f 21/51/1 20/47/1 52/48/1
f 8/53/1 7/49/1 39/50/1
f 22/55/1 21/51/1 53/52/1
f 9/57/1 8/53/1 40/54/1
f 23/59/1 22/55/1 54/56/1
f 10/61/1 9/57/1 41/58/1
f 24/63/1 23/59/1 55/60/1
f 11/64/1 10/61/1 42/62/1
f 33/20/1 64/41/1 96/65/1
f 52/48/1 51/43/1 83/67/1
f 39/50/1 38/45/1 70/69/1
f 53/52/1 52/48/1 84/68/1
f 40/54/1 39/50/1 71/70/1
f 54/56/1 53/52/1 85/71/1
f 41/58/1 40/54/1 72/72/1
f 55/60/1 54/56/1 86/73/1
f 42/62/1 41/58/1 73/74/1
f 56/2/1 55/60/1 87/75/1
f 43/5/1 42/62/1 74/76/1
f 57/3/1 56/2/1 88/77/1
f 44/6/1 43/5/1 75/78/1
f 58/8/1 57/3/1 89/79/1
f 45/10/1 44/6/1 76/80/1
f 59/12/1 58/8/1 90/81/1
f 46/14/1 45/10/1 77/82/1
f 60/16/1 59/12/1 91/83/1
f 47/18/1 46/14/1 78/84/1
f 34/21/1 33/20/1 65/66/1
f 61/23/1 60/16/1 92/85/1
f 48/25/1 47/18/1 79/86/1
f 35/27/1 34/21/1 66/87/1
f 62/29/1 61/23/1 93/88/1
f 49/31/1 48/25/1 80/89/1
f 36/33/1 35/27/1 67/90/1
f 63/35/1 62/29/1 94/91/1
f 50/37/1 49/31/1 81/92/1
f 37/39/1 36/33/1 68/93/1
f 64/41/1 63/35/1 95/94/1
f 51/43/1 50/37/1 82/95/1
f 38/45/1 37/39/1 69/96/1
f 86/73/2 118/127/2 119/97/2
f 73/74/2 105/128/2 106/98/2
f 88/77/2 87/75/2 119/97/2
f 75/78/2 74/76/2 106/98/2
f 88/77/2 120/99/2 121/101/2
f 75/78/2 107/100/2 108/102/2
f 90/81/2 89/79/2 121/101/2
f 76/80/2 108/102/2 109/104/2
f 90/81/2 122/103/2 123/105/2
f 77/82/2 109/104/2 110/106/2
f 92/85/2 91/83/2 123/105/2
f 78/84/2 110/106/2 111/108/2
f 66/87/2 65/66/2 97/109/2
f 93/88/2 92/85/2 124/107/2
f 79/86/2 111/108/2 112/112/2
f 66/87/2 98/110/2 99/113/2
f 93/88/2 125/111/2 126/114/2
f 80/89/2 112/112/2 113/115/2
f 67/90/2 99/113/2 100/116/2
f 95/94/2 94/91/2 126/114/2
f 81/92/2 113/115/2 114/118/2
f 68/93/2 100/116/2 101/119/2
f 95/94/2 127/117/2 128/120/2
f 82/95/2 114/118/2 115/121/2
f 69/96/2 101/119/2 102/122/2
f 96/65/2 128/120/2 97/109/2
f 83/67/2 115/121/2 116/123/2
f 70/69/2 102/122/2 103/124/2
f 84/68/2 116/123/2 117/125/2
f 71/70/2 103/124/2 104/126/2
f 85/71/2 117/125/2 118/127/2
f 72/72/2 104/126/2 105/128/2
