# Blender v2.80 (sub 75) OBJ File: ''
# www.blender.org
mtllib try3obj.mtl
o Circle_Circle.001
v -0.000104 0.000119 -99.999985
v -19.509138 0.000119 -98.078506
v -38.268448 0.000119 -92.387932
v -55.557129 0.000119 -83.146942
v -70.710785 0.000119 -70.710663
v -83.147072 0.000119 -55.557003
v -92.388054 0.000119 -38.268326
v -98.078629 0.000119 -19.509022
v -100.000107 0.000119 0.000006
v -98.078636 0.000119 19.509033
v -92.388062 0.000119 38.268341
v -83.147072 0.000119 55.557034
v -70.710785 0.000119 70.710693
v -55.557121 0.000119 83.146980
v -38.268429 0.000119 92.387978
v -19.509113 0.000119 98.078545
v -0.000072 0.000119 100.000015
v 19.508968 0.000119 98.078537
v 38.268284 0.000119 92.387947
v 55.556969 0.000119 83.146942
v 70.710617 0.000119 70.710648
v 83.146896 0.000119 55.556980
v 92.387878 0.000119 38.268284
v 98.078438 0.000119 19.508959
v 99.999893 0.000119 -0.000083
v 98.078400 0.000119 -19.509121
v 92.387802 0.000119 -38.268433
v 83.146790 0.000119 -55.557110
v 70.710480 0.000119 -70.710754
v 55.556808 0.000119 -83.147018
v 38.268105 0.000119 -92.387993
v 19.508778 0.000119 -98.078537
v -0.000104 0.000119 -99.999985
v -19.509138 0.000119 -98.078506
v -38.268448 0.000119 -92.387932
v -55.557129 0.000119 -83.146942
v -70.710785 0.000119 -70.710663
v -83.147072 0.000119 -55.557003
v -92.388054 0.000119 -38.268326
v -98.078629 0.000119 -19.509022
v -100.000107 0.000119 0.000006
v -98.078636 0.000119 19.509033
v -92.388062 0.000119 38.268341
v -83.147072 0.000119 55.557034
v -70.710785 0.000119 70.710693
v -55.557121 0.000119 83.146980
v -38.268429 0.000119 92.387978
v -19.509113 0.000119 98.078545
v -0.000072 0.000119 100.000015
v 19.508968 0.000119 98.078537
v 38.268284 0.000119 92.387947
v 55.556969 0.000119 83.146942
v 70.710617 0.000119 70.710648
v 83.146896 0.000119 55.556980
v 92.387878 0.000119 38.268284
v 98.078438 0.000119 19.508959
v 99.999893 0.000119 -0.000083
v 98.078400 0.000119 -19.509121
v 92.387802 0.000119 -38.268433
v 83.146790 0.000119 -55.557110
v 70.710480 0.000119 -70.710754
v 55.556808 0.000119 -83.147018
v 38.268105 0.000119 -92.387993
v 19.508778 0.000119 -98.078537
v -0.000104 0.000119 -99.999985
v -19.509138 0.000119 -98.078506
v -38.268448 0.000119 -92.387932
v -55.557129 0.000119 -83.146942
v -70.710785 0.000119 -70.710663
v -83.147072 0.000119 -55.557003
v -92.388054 0.000119 -38.268326
v -98.078629 0.000119 -19.509022
v -100.000107 0.000119 0.000006
v -98.078636 0.000119 19.509033
v -92.388062 0.000119 38.268341
v -83.147072 0.000119 55.557034
v -70.710785 0.000119 70.710693
v -55.557121 0.000119 83.146980
v -38.268429 0.000119 92.387978
v -19.509113 0.000119 98.078545
v -0.000072 0.000119 100.000015
v 19.508968 0.000119 98.078537
v 38.268284 0.000119 92.387947
v 55.556969 0.000119 83.146942
v 70.710617 0.000119 70.710648
v 83.146896 0.000119 55.556980
v 92.387878 0.000119 38.268284
v 98.078438 0.000119 19.508959
v 99.999893 0.000119 -0.000083
v 98.078400 0.000119 -19.509121
v 92.387802 0.000119 -38.268433
v 83.146790 0.000119 -55.557110
v 70.710480 0.000119 -70.710754
v 55.556808 0.000119 -83.147018
v 38.268105 0.000119 -92.387993
v 19.508778 0.000119 -98.078537
v -0.000109 0.000119 -53.839203
v -10.503615 0.000119 -52.804695
v -20.603479 0.000119 -49.740932
v -29.911566 0.000119 -44.765656
v -38.070168 0.000119 -38.070061
v -44.765766 0.000119 -29.911453
v -49.741039 0.000119 -20.603373
v -52.804798 0.000119 -10.503511
v -53.839310 0.000119 -0.000006
v -52.804806 0.000119 10.503498
v -49.741043 0.000119 20.603361
v -44.765766 0.000119 29.911453
v -38.070168 0.000119 38.070065
v -29.911564 0.000119 44.765663
v -20.603472 0.000119 49.740944
v -10.503603 0.000119 52.804695
v -0.000091 0.000119 53.839199
v 10.503420 0.000119 52.804688
v 20.603285 0.000119 49.740925
v 29.911377 0.000119 44.765644
v 38.069984 0.000119 38.070042
v 44.765575 0.000119 29.911427
v 49.740849 0.000119 20.603327
v 52.804592 0.000119 10.503458
v 53.839092 0.000119 -0.000054
v 52.804577 0.000119 -10.503565
v 49.740807 0.000119 -20.603428
v 44.765518 0.000119 -29.911514
v 38.069908 0.000119 -38.070110
v 29.911291 0.000119 -44.765697
v 20.603188 0.000119 -49.740963
v 10.503317 0.000119 -52.804710
vt 0.000000 0.000000
vt 0.000000 0.000000
vt 0.000000 0.000000
vt 0.000000 0.000000
vt 0.000000 0.000000
vt 0.000000 0.000000
vt 0.000000 0.000000
vt 0.000000 0.000000
vt 0.000000 0.000000
vt 0.000000 0.000000
vt 0.000000 0.000000
vt 0.000000 0.000000
vt 0.000000 0.000000
vt 0.000000 0.000000
vt 0.000000 0.000000
vt 0.000000 0.000000
vt 0.000000 0.000000
vt 0.000000 0.000000
vt 0.000000 0.000000
vt 0.000000 0.000000
vt 0.000000 0.000000
vt 0.000000 0.000000
vt 0.000000 0.000000
vt 0.000000 0.000000
vt 0.000000 0.000000
vt 0.000000 0.000000
vt 0.000000 0.000000
vt 0.000000 0.000000
vt 0.000000 0.000000
vt 0.000000 0.000000
vt 0.000000 0.000000
vt 0.000000 0.000000
vt 0.000000 0.000000
vt 0.000000 0.000000
vt 0.000000 0.000000
vt 0.000000 0.000000
vt 0.000000 0.000000
vt 0.000000 0.000000
vt 0.000000 0.000000
vt 0.000000 0.000000
vt 0.000000 0.000000
vt 0.000000 0.000000
vt 0.000000 0.000000
vt 0.000000 0.000000
vt 0.000000 0.000000
vt 0.000000 0.000000
vt 0.000000 0.000000
vt 0.000000 0.000000
vt 0.000000 0.000000
vt 0.000000 0.000000
vt 0.000000 0.000000
vt 0.000000 0.000000
vt 0.000000 0.000000
vt 0.000000 0.000000
vt 0.000000 0.000000
vt 0.000000 0.000000
vt 0.000000 0.000000
vt 0.000000 0.000000
vt 0.000000 0.000000
vt 0.000000 0.000000
vt 0.000000 0.000000
vt 0.000000 0.000000
vt 0.000000 0.000000
vt 0.000000 0.000000
vt 0.000000 0.000000
vt 0.000000 0.000000
vt 0.000000 0.000000
vt 0.000000 0.000000
vt 0.000000 0.000000
vt 0.000000 0.000000
vt 0.000000 0.000000
vt 0.000000 0.000000
vt 0.000000 0.000000
vt 0.000000 0.000000
vt 0.000000 0.000000
vt 0.000000 0.000000
vt 0.000000 0.000000
vt 0.000000 0.000000
vt 0.000000 0.000000
vt 0.000000 0.000000
vt 0.000000 0.000000
vt 0.000000 0.000000
vt 0.000000 0.000000
vt 0.000000 0.000000
vt 0.000000 0.000000
vt 0.000000 0.000000
vt 0.000000 0.000000
vt 0.000000 0.000000
vt 0.000000 0.000000
vt 0.000000 0.000000
vt 0.000000 0.000000
vt 0.000000 0.000000
vt 0.000000 0.000000
vt 0.000000 0.000000
vt 0.000000 0.000000
vt 0.000000 0.000000
vt 0.000000 0.000000
vt 0.000000 0.000000
vt 0.000000 0.000000
vt 0.000000 0.000000
vt 0.000000 0.000000
vt 0.000000 0.000000
vt 0.000000 0.000000
vt 0.000000 0.000000
vt 0.000000 0.000000
vt 0.000000 0.000000
vt 0.000000 0.000000
vt 0.000000 0.000000
vt 0.000000 0.000000
vt 0.000000 0.000000
vt 0.000000 0.000000
vt 0.000000 0.000000
vt 0.000000 0.000000
vt 0.000000 0.000000
vt 0.000000 0.000000
vt 0.000000 0.000000
vt 0.000000 0.000000
vt 0.000000 0.000000
vt 0.000000 0.000000
vt 0.000000 0.000000
vt 0.000000 0.000000
vt 0.000000 0.000000
vt 0.000000 0.000000
vt 0.000000 0.000000
vt 0.000000 0.000000
vt 0.000000 0.000000
vt 0.000000 0.000000
vt 0.000000 0.000000
vn 0.0000 0.0000 1.0000
vn 0.0000 -1.0000 0.0000
usemtl None
s off
f 25/1/1 56/2/1 57/3/1
f 12/4/1 43/5/1 44/6/1
f 26/7/1 57/3/1 58/8/1
f 13/9/1 44/6/1 45/10/1
f 27/11/1 58/8/1 59/12/1
f 14/13/1 45/10/1 46/14/1
f 28/15/1 59/12/1 60/16/1
f 15/17/1 46/14/1 47/18/1
f 2/19/1 33/20/1 34/21/1
f 29/22/1 60/16/1 61/23/1
f 16/24/1 47/18/1 48/25/1
f 3/26/1 34/21/1 35/27/1
f 30/28/1 61/23/1 62/29/1
f 17/30/1 48/25/1 49/31/1
f 4/32/1 35/27/1 36/33/1
f 31/34/1 62/29/1 63/35/1
f 18/36/1 49/31/1 50/37/1
f 5/38/1 36/33/1 37/39/1
f 32/40/1 63/35/1 64/41/1
f 19/42/1 50/37/1 51/43/1
f 6/44/1 37/39/1 38/45/1
f 1/46/1 64/41/1 33/20/1
f 20/47/1 51/43/1 52/48/1
f 7/49/1 38/45/1 39/50/1
f 21/51/1 52/48/1 53/52/1
f 8/53/1 39/50/1 40/54/1
f 22/55/1 53/52/1 54/56/1
f 9/57/1 40/54/1 41/58/1
f 23/59/1 54/56/1 55/60/1
f 10/61/1 41/58/1 42/62/1
f 24/63/1 55/60/1 56/2/1
f 11/64/1 42/62/1 43/5/1
f 33/20/1 96/65/1 65/66/1
f 52/48/1 83/67/1 84/68/1
f 39/50/1 70/69/1 71/70/1
f 53/52/1 84/68/1 85/71/1
f 40/54/1 71/70/1 72/72/1
f 54/56/1 85/71/1 86/73/1
f 41/58/1 72/72/1 73/74/1
f 55/60/1 86/73/1 87/75/1
f 42/62/1 73/74/1 74/76/1
f 56/2/1 87/75/1 88/77/1
f 43/5/1 74/76/1 75/78/1
f 57/3/1 88/77/1 89/79/1
f 44/6/1 75/78/1 76/80/1
f 58/8/1 89/79/1 90/81/1
f 45/10/1 76/80/1 77/82/1
f 59/12/1 90/81/1 91/83/1
f 46/14/1 77/82/1 78/84/1
f 60/16/1 91/83/1 92/85/1
f 47/18/1 78/84/1 79/86/1
f 34/21/1 65/66/1 66/87/1
f 61/23/1 92/85/1 93/88/1
f 48/25/1 79/86/1 80/89/1
f 35/27/1 66/87/1 67/90/1
f 62/29/1 93/88/1 94/91/1
f 49/31/1 80/89/1 81/92/1
f 36/33/1 67/90/1 68/93/1
f 63/35/1 94/91/1 95/94/1
f 50/37/1 81/92/1 82/95/1
f 37/39/1 68/93/1 69/96/1
f 64/41/1 95/94/1 96/65/1
f 51/43/1 82/95/1 83/67/1
f 38/45/1 69/96/1 70/69/1
f 86/73/2 119/97/2 87/75/2
f 73/74/2 106/98/2 74/76/2
f 88/77/2 119/97/2 120/99/2
f 75/78/2 106/98/2 107/100/2
f 88/77/2 121/101/2 89/79/2
f 75/78/2 108/102/2 76/80/2
f 90/81/2 121/101/2 122/103/2
f 76/80/2 109/104/2 77/82/2
f 90/81/2 123/105/2 91/83/2
f 77/82/2 110/106/2 78/84/2
f 92/85/2 123/105/2 124/107/2
f 78/84/2 111/108/2 79/86/2
f 66/87/2 97/109/2 98/110/2
f 93/88/2 124/107/2 125/111/2
f 79/86/2 112/112/2 80/89/2
f 66/87/2 99/113/2 67/90/2
f 93/88/2 126/114/2 94/91/2
f 80/89/2 113/115/2 81/92/2
f 67/90/2 100/116/2 68/93/2
f 95/94/2 126/114/2 127/117/2
f 81/92/2 114/118/2 82/95/2
f 68/93/2 101/119/2 69/96/2
f 95/94/2 128/120/2 96/65/2
f 82/95/2 115/121/2 83/67/2
f 69/96/2 102/122/2 70/69/2
f 96/65/2 97/109/2 65/66/2
f 83/67/2 116/123/2 84/68/2
f 70/69/2 103/124/2 71/70/2
f 84/68/2 117/125/2 85/71/2
f 71/70/2 104/126/2 72/72/2
f 85/71/2 118/127/2 86/73/2
f 72/72/2 105/128/2 73/74/2
f 25/1/1 24/63/1 56/2/1
f 12/4/1 11/64/1 43/5/1
f 26/7/1 25/1/1 57/3/1
f 13/9/1 12/4/1 44/6/1
f 27/11/1 26/7/1 58/8/1
f 14/13/1 13/9/1 45/10/1
f 28/15/1 27/11/1 59/12/1
f 15/17/1 14/13/1 46/14/1
f 2/19/1 1/46/1 33/20/1
f 29/22/1 28/15/1 60/16/1
f 16/24/1 15/17/1 47/18/1
f 3/26/1 2/19/1 34/21/1
f 30/28/1 29/22/1 61/23/1
f 17/30/1 16/24/1 48/25/1
f 4/32/1 3/26/1 35/27/1
f 31/34/1 30/28/1 62/29/1
f 18/36/1 17/30/1 49/31/1
f 5/38/1 4/32/1 36/33/1
f 32/40/1 31/34/1 63/35/1
f 19/42/1 18/36/1 50/37/1
f 6/44/1 5/38/1 37/39/1
f 1/46/1 32/40/1 64/41/1
f 20/47/1 19/42/1 51/43/1
f 7/49/1 6/44/1 38/45/1
f 21/51/1 20/47/1 52/48/1
f 8/53/1 7/49/1 39/50/1
f 22/55/1 21/51/1 53/52/1
f 9/57/1 8/53/1 40/54/1
f 23/59/1 22/55/1 54/56/1
f 10/61/1 9/57/1 41/58/1
f 24/63/1 23/59/1 55/60/1
f 11/64/1 10/61/1 42/62/1
f 33/20/1 64/41/1 96/65/1
f 52/48/1 51/43/1 83/67/1
f 39/50/1 38/45/1 70/69/1
f 53/52/1 52/48/1 84/68/1
f 40/54/1 39/50/1 71/70/1
f 54/56/1 53/52/1 85/71/1
f 41/58/1 40/54/1 72/72/1
f 55/60/1 54/56/1 86/73/1
f 42/62/1 41/58/1 73/74/1
f 56/2/1 55/60/1 87/75/1
f 43/5/1 42/62/1 74/76/1
f 57/3/1 56/2/1 88/77/1
f 44/6/1 43/5/1 75/78/1
f 58/8/1 57/3/1 89/79/1
f 45/10/1 44/6/1 76/80/1
f 59/12/1 58/8/1 90/81/1
f 46/14/1 45/10/1 77/82/1
f 60/16/1 59/12/1 91/83/1
f 47/18/1 46/14/1 78/84/1
f 34/21/1 33/20/1 65/66/1
f 61/23/1 60/16/1 92/85/1
f 48/25/1 47/18/1 79/86/1
f 35/27/1 34/21/1 66/87/1
f 62/29/1 61/23/1 93/88/1
f 49/31/1 48/25/1 80/89/1
f 36/33/1 35/27/1 67/90/1
f 63/35/1 62/29/1 94/91/1
f 50/37/1 49/31/1 81/92/1
f 37/39/1 36/33/1 68/93/1
f 64/41/1 63/35/1 95/94/1
f 51/43/1 50/37/1 82/95/1
f 38/45/1 37/39/1 69/96/1
f 86/73/2 118/127/2 119/97/2
f 73/74/2 105/128/2 106/98/2
f 88/77/2 87/75/2 119/97/2
f 75/78/2 74/76/2 106/98/2
f 88/77/2 120/99/2 121/101/2
f 75/78/2 107/100/2 108/102/2
f 90/81/2 89/79/2 121/101/2
f 76/80/2 108/102/2 109/104/2
f 90/81/2 122/103/2 123/105/2
f 77/82/2 109/104/2 110/106/2
f 92/85/2 91/83/2 123/105/2
f 78/84/2 110/106/2 111/108/2
f 66/87/2 65/66/2 97/109/2
f 93/88/2 92/85/2 124/107/2
f 79/86/2 111/108/2 112/112/2
f 66/87/2 98/110/2 99/113/2
f 93/88/2 125/111/2 126/114/2
f 80/89/2 112/112/2 113/115/2
f 67/90/2 99/113/2 100/116/2
f 95/94/2 94/91/2 126/114/2
f 81/92/2 113/115/2 114/118/2
f 68/93/2 100/116/2 101/119/2
f 95/94/2 127/117/2 128/120/2
f 82/95/2 114/118/2 115/121/2
f 69/96/2 101/119/2 102/122/2
f 96/65/2 128/120/2 97/109/2
f 83/67/2 115/121/2 116/123/2
f 70/69/2 102/122/2 103/124/2
f 84/68/2 116/123/2 117/125/2
f 71/70/2 103/124/2 104/126/2
f 85/71/2 117/125/2 118/127/2
f 72/72/2 104/126/2 105/128/2
